<mxfile host="Electron" modified="2024-10-12T20:18:00.896Z" agent="Mozilla/5.0 (Macintosh; Intel Mac OS X 10_15_7) AppleWebKit/537.36 (KHTML, like Gecko) draw.io/22.0.2 Chrome/114.0.5735.289 Electron/25.8.4 Safari/537.36" etag="LLytq8mVF2xTvhH1Ln3V" version="22.0.2" type="device">
  <diagram name="Страница — 1" id="NE-Pc5_1FctrbBiEEjLK">
    <mxGraphModel dx="812" dy="743" grid="1" gridSize="10" guides="1" tooltips="1" connect="1" arrows="1" fold="1" page="1" pageScale="1" pageWidth="1169" pageHeight="827" math="0" shadow="0">
      <root>
        <mxCell id="0" />
        <mxCell id="1" parent="0" />
        <mxCell id="8ABiT16er5zSWz0gKqf--1" value="" style="sketch=0;html=1;dashed=0;whitespace=wrap;fillColor=#2875E2;strokeColor=#ffffff;points=[[0.005,0.63,0],[0.1,0.2,0],[0.9,0.2,0],[0.5,0,0],[0.995,0.63,0],[0.72,0.99,0],[0.5,1,0],[0.28,0.99,0]];verticalLabelPosition=bottom;align=center;verticalAlign=top;shape=mxgraph.kubernetes.icon;prIcon=api" vertex="1" parent="1">
          <mxGeometry x="320" y="190" width="80" height="78" as="geometry" />
        </mxCell>
        <mxCell id="8ABiT16er5zSWz0gKqf--2" value="" style="sketch=0;outlineConnect=0;fontColor=#232F3E;gradientColor=none;fillColor=#C925D1;strokeColor=none;dashed=0;verticalLabelPosition=bottom;verticalAlign=top;align=center;html=1;fontSize=12;fontStyle=0;aspect=fixed;pointerEvents=1;shape=mxgraph.aws4.rds_sql_server_instance_alt;" vertex="1" parent="1">
          <mxGeometry x="490" y="200" width="78" height="78" as="geometry" />
        </mxCell>
        <mxCell id="8ABiT16er5zSWz0gKqf--3" value="" style="endArrow=classic;startArrow=classic;html=1;rounded=0;exitX=0.995;exitY=0.63;exitDx=0;exitDy=0;exitPerimeter=0;" edge="1" parent="1" source="8ABiT16er5zSWz0gKqf--1" target="8ABiT16er5zSWz0gKqf--2">
          <mxGeometry width="50" height="50" relative="1" as="geometry">
            <mxPoint x="420" y="330" as="sourcePoint" />
            <mxPoint x="470" y="280" as="targetPoint" />
          </mxGeometry>
        </mxCell>
        <mxCell id="8ABiT16er5zSWz0gKqf--4" value="" style="sketch=0;outlineConnect=0;fontColor=#232F3E;gradientColor=none;fillColor=#7AA116;strokeColor=none;dashed=0;verticalLabelPosition=bottom;verticalAlign=top;align=center;html=1;fontSize=12;fontStyle=0;aspect=fixed;pointerEvents=1;shape=mxgraph.aws4.iot_thing_plc;" vertex="1" parent="1">
          <mxGeometry x="321" y="330" width="78" height="78" as="geometry" />
        </mxCell>
        <mxCell id="8ABiT16er5zSWz0gKqf--5" value="" style="endArrow=classic;html=1;rounded=0;entryX=0.5;entryY=1;entryDx=0;entryDy=0;entryPerimeter=0;" edge="1" parent="1" source="8ABiT16er5zSWz0gKqf--4" target="8ABiT16er5zSWz0gKqf--1">
          <mxGeometry width="50" height="50" relative="1" as="geometry">
            <mxPoint x="230" y="360" as="sourcePoint" />
            <mxPoint x="280" y="310" as="targetPoint" />
          </mxGeometry>
        </mxCell>
        <mxCell id="8ABiT16er5zSWz0gKqf--6" value="esp3266&lt;br&gt;" style="text;html=1;strokeColor=none;fillColor=none;align=center;verticalAlign=middle;whiteSpace=wrap;rounded=0;" vertex="1" parent="1">
          <mxGeometry x="330" y="414" width="60" height="30" as="geometry" />
        </mxCell>
        <mxCell id="8ABiT16er5zSWz0gKqf--7" value="DataBase" style="text;html=1;strokeColor=none;fillColor=none;align=center;verticalAlign=middle;whiteSpace=wrap;rounded=0;" vertex="1" parent="1">
          <mxGeometry x="499" y="170" width="60" height="30" as="geometry" />
        </mxCell>
        <mxCell id="8ABiT16er5zSWz0gKqf--8" value="Api server" style="text;html=1;strokeColor=none;fillColor=none;align=center;verticalAlign=middle;whiteSpace=wrap;rounded=0;" vertex="1" parent="1">
          <mxGeometry x="331" y="160" width="60" height="30" as="geometry" />
        </mxCell>
        <mxCell id="8ABiT16er5zSWz0gKqf--9" value="" style="points=[[0.13,0.02,0],[0.5,0,0],[0.87,0.02,0],[0.885,0.4,0],[0.985,0.985,0],[0.5,1,0],[0.015,0.985,0],[0.115,0.4,0]];verticalLabelPosition=bottom;sketch=0;html=1;verticalAlign=top;aspect=fixed;align=center;pointerEvents=1;shape=mxgraph.cisco19.laptop;fillColor=#005073;strokeColor=none;" vertex="1" parent="1">
          <mxGeometry x="150" y="210" width="99.99" height="70" as="geometry" />
        </mxCell>
        <mxCell id="8ABiT16er5zSWz0gKqf--10" value="" style="endArrow=classic;startArrow=classic;html=1;rounded=0;entryX=0.005;entryY=0.63;entryDx=0;entryDy=0;entryPerimeter=0;exitX=0.885;exitY=0.4;exitDx=0;exitDy=0;exitPerimeter=0;" edge="1" parent="1" source="8ABiT16er5zSWz0gKqf--9" target="8ABiT16er5zSWz0gKqf--1">
          <mxGeometry width="50" height="50" relative="1" as="geometry">
            <mxPoint x="240" y="300" as="sourcePoint" />
            <mxPoint x="290" y="250" as="targetPoint" />
          </mxGeometry>
        </mxCell>
        <mxCell id="8ABiT16er5zSWz0gKqf--11" value="Client&lt;br&gt;WEB or TG" style="text;html=1;strokeColor=none;fillColor=none;align=center;verticalAlign=middle;whiteSpace=wrap;rounded=0;" vertex="1" parent="1">
          <mxGeometry x="165" y="170" width="70" height="30" as="geometry" />
        </mxCell>
      </root>
    </mxGraphModel>
  </diagram>
</mxfile>
